<?xml version="1.0" encoding="utf-8"?>
<!-- Generator: Adobe Illustrator 30.2.0, SVG Export Plug-In . SVG Version: 9.03 Build 0)  -->
<svg version="1.0" id="Calque_1" xmlns="http://www.w3.org/2000/svg" xmlns:xlink="http://www.w3.org/1999/xlink" x="0px" y="0px"
	 viewBox="0 0 3780 3780" style="enable-background:new 0 0 3780 3780;" xml:space="preserve">
<style type="text/css">
	.st0{clip-path:url(#SVGID_00000145756624116036071170000014686765304075530647_);}
	.st1{clip-path:url(#SVGID_00000045600048845588485290000005342616747750891967_);}
	.st2{clip-path:url(#SVGID_00000045614829448571379950000015692662221103380651_);}
	.st3{fill:url(#SVGID_00000008838629257996666380000000345065661797794188_);}
</style>
<g transform="matrix(1, 0, 0, 1, 557, 557)">
	<g>
		<g>
			<g>
				<defs>
					<rect id="SVGID_1_" x="186.1" y="186.1" width="2294.3" height="2294.3"/>
				</defs>
				<clipPath id="SVGID_00000150808173140675584930000002101471709816044196_">
					<use xlink:href="#SVGID_1_"  style="overflow:visible;"/>
				</clipPath>
				<g style="clip-path:url(#SVGID_00000150808173140675584930000002101471709816044196_);">
					<g>
						<defs>
							<path id="SVGID_00000042694714860120282760000014707458819769403575_" d="M920,1873l154.2-154.4v277.7L920,1873z
								 M617.7,1923.4c36,25.2,78.6,38.9,123.4,38.9c44.8,0,87.5-13.7,123.4-38.9l141.1,112.9h-529L617.7,1923.4z M562.3,1872.8
								l-154.2,123.4v-277.7L562.3,1872.8z M841.3,1846.8c-53.5,53.5-146.9,53.5-200.3,0l-180.5-180.5h561.4L841.3,1846.8z
								 M1148.2,1592.3H334.1v518.1h814.1V1592.3z M741.1,778.2c-40.8,0-74-33.2-74-74v-74c0-40.8,33.2-74,74-74
								c40.8,0,74,33.2,74,74v74C815.2,744.9,781.9,778.2,741.1,778.2z M741.1,1000.2v-74c-122.4,0-222-99.6-222-222v-74
								c0-122.4,99.6-222,222-222c122.4,0,222,99.6,222,222v185c0,20.4-16.6,37-37,37c-20.4,0-37-16.6-37-37v-185
								c0-81.7-66.3-148-148-148c-81.7,0-148,66.3-148,148v74c0,81.7,66.3,148,148,148c27.8,0,53.3-8.1,75.6-21.4
								c7.7,53.8,53.5,95.4,109.4,95.4c61.3,0,111-49.7,111-111v-185c0-163.2-132.8-296-296-296c-163.2,0-296,132.8-296,296v74
								C445.1,867.3,578,1000.2,741.1,1000.2z M260.1,371.1c0-61.3,49.7-111,111-111h740.1c61.3,0,111,49.7,111,111v592.1
								c0,61.3-49.7,111-111,111H371.1c-61.3,0-111-49.7-111-111V371.1z M371.1,1148.2h740.1c102.1,0,185-83,185-185V371.1
								c0-102.1-83-185-185-185H371.1c-102.1,0-185,83-185,185v592.1C186.1,1065.2,269.1,1148.2,371.1,1148.2z M260.1,1555.3
								c0-61.3,49.7-111,111-111h740.1c61.3,0,111,49.7,111,111v592.1c0,61.3-49.7,111-111,111H371.1c-61.3,0-111-49.7-111-111
								V1555.3z M371.1,2332.3h740.1c102.1,0,185-83,185-185v-592.1c0-102.1-83-185-185-185H371.1c-102.1,0-185,83-185,185v592.1
								C186.1,2249.4,269.1,2332.3,371.1,2332.3z M2406.4,963.2c0,61.3-49.7,111-111,111h-259V997c8.8,1.7,17.8,3.2,26.9,3.2
								c39.6,0,78.5-16,106.7-44.2l51.5-51.5c23.8-23.8,37-55.7,37-89.3c0-33.7-13.2-65.5-37-89.3l-65.2-65.2
								c-19.7-19.7-45.8-30.5-73.6-30.5h-4.9c-39.6,0-75.2,22-92.9,57.4c-5.1,10.3-15.3,16.6-26.7,16.6h-4.9
								c-8.1,0-15.5-3.2-21.2-8.8l-34.7-34.7c-5.6-5.8-8.8-13.2-8.8-21.2v-4.9c0-11.4,6.4-21.7,16.6-26.7
								c35.4-17.8,57.4-53.3,57.4-92.9v-4.9c0-27.8-10.8-53.9-30.5-73.6l-65.2-65.2c-47.7-47.7-131-47.7-178.7,0l-51.5,51.5
								c-28.2,28.2-44.2,67.1-44.2,110.1c0,20.5,4,40.6,12.1,59.4c51.5,119.8,132.4,222.8,235.8,300.7
								c-15.9,19.2-25.9,43.5-25.9,70.4v111h-259c-61.3,0-111-49.7-111-111V371.1c0-61.3,49.7-111,111-111h740.1
								c61.3,0,111,49.7,111,111V963.2z M2073.3,1296.2c20.4,0,37,16.6,37,37v296h74v-222c0-20.4,16.6-37,37-37
								c20.4,0,37,16.6,37,37v222h74v-148c0-20.4,16.6-37,37-37c20.4,0,37,16.6,37,37v446.1c0,17.2-4,34.4-11.7,49.7l-62.3,124.6
								v82.7h-592.1V2098l-94.8-126.5c-11.6-15.5-18.9-33.7-21.4-52.8l-26.2-209.9c-4.6-36.6-17.8-72.1-38.3-102.8l-38-57.1
								c-2.2-3.3-3.3-7.1-3.3-11c0-11,8.8-19.8,19.8-19.8c78.2,0,146,55.7,161.3,132.3l47.6,237.8h90.2l31.7-63.2
								c12.7-25.6,19.5-54.2,19.5-82.8V963.2c0-20.4,16.6-37,37-37c20.4,0,37,16.6,37,37v666.1h74v-296
								C2036.3,1312.8,2052.9,1296.2,2073.3,1296.2z M2406.4,2406.4h-740.1v-148h740.1V2406.4z M1844.8,713l34.7,34.7
								c19.7,19.7,45.8,30.5,73.6,30.5h4.9c39.6,0,75.2-22,92.9-57.4c5.1-10.3,15.3-16.6,26.7-16.6h4.9c8.1,0,15.5,3.2,21.2,8.8
								l65.2,65.2c9.7,9.7,15.3,23.3,15.3,37c0,13.7-5.6,27.3-15.3,37l-51.5,51.5c-22.7,22.7-60,28.8-88.8,14.5l-3.2-1.6
								c-17.6-37.9-55.8-64.3-100.3-64.3c-4.2,0-8.2,0.7-12.3,1.3c-106.5-72-189.8-172-240.5-290.4c-4.2-9.7-6.2-19.8-6.2-33.8
								c0-20.2,8.2-40,22.5-54.3l51.5-51.5c19.5-19.5,54.5-19.5,74,0l65.2,65.2c5.6,5.8,8.8,13.2,8.8,21.2v4.9
								c0,11.4-6.4,21.7-16.6,26.7c-35.4,17.8-57.4,53.3-57.4,92.9v4.9C1814.3,667.1,1825.1,693.3,1844.8,713z M2295.3,186.1h-740.1
								c-102.1,0-185,83-185,185v592.1c0,102.1,83,185,185,185h259v594.1c0,16.9-3.9,33.7-11.3,48.9l-31.1-155.2
								c-22.1-111-120.6-191.7-233.9-191.7c-51.7,0-93.8,42.1-93.8,93.8c0,18.5,5.5,36.6,15.8,52l38.2,57.1
								c14,21.1,23.1,45.7,26.3,70.8l26.2,209.9c4,31.9,16.3,62.3,35.6,88l80.1,106.7v61.7h-74v296h888.1v-296h-74v-65.2l54.5-109
								c12.7-25.6,19.5-54.2,19.5-82.8v-446.1c0-61.3-49.7-111-111-111c-14.6,0-28.5,3-41.3,8.1c-12.7-47.1-55.5-82.1-106.7-82.1
								c-14.6,0-28.5,3-41.3,8.1c-12.7-47.1-55.5-82.1-106.7-82.1c-13,0-25.3,2.7-37,6.8v-80.8h259c102.1,0,185-83,185-185V371.1
								C2480.4,269.1,2397.4,186.1,2295.3,186.1z"/>
						</defs>
						<clipPath id="SVGID_00000074405062769093347800000015253377659867604135_">
							<use xlink:href="#SVGID_00000042694714860120282760000014707458819769403575_"  style="overflow:visible;"/>
						</clipPath>
						<g style="clip-path:url(#SVGID_00000074405062769093347800000015253377659867604135_);">
							<g>
								<defs>
									<path id="SVGID_00000088829195373970011420000015470928687051720576_" d="M920,1873l154.2-154.4v277.7L920,1873z
										 M617.7,1923.4c36,25.2,78.6,38.9,123.4,38.9c44.8,0,87.5-13.7,123.4-38.9l141.1,112.9h-529L617.7,1923.4z M562.3,1872.8
										l-154.2,123.4v-277.7L562.3,1872.8z M841.3,1846.8c-53.5,53.5-146.9,53.5-200.3,0l-180.5-180.5h561.4L841.3,1846.8z
										 M1148.2,1592.3H334.1v518.1h814.1V1592.3z M741.1,778.2c-40.8,0-74-33.2-74-74v-74c0-40.8,33.2-74,74-74
										c40.8,0,74,33.2,74,74v74C815.2,744.9,781.9,778.2,741.1,778.2z M741.1,1000.2v-74c-122.4,0-222-99.6-222-222v-74
										c0-122.4,99.6-222,222-222c122.4,0,222,99.6,222,222v185c0,20.4-16.6,37-37,37c-20.4,0-37-16.6-37-37v-185
										c0-81.7-66.3-148-148-148c-81.7,0-148,66.3-148,148v74c0,81.7,66.3,148,148,148c27.8,0,53.3-8.1,75.6-21.4
										c7.7,53.8,53.5,95.4,109.4,95.4c61.3,0,111-49.7,111-111v-185c0-163.2-132.8-296-296-296c-163.2,0-296,132.8-296,296v74
										C445.1,867.3,578,1000.2,741.1,1000.2z M260.1,371.1c0-61.3,49.7-111,111-111h740.1c61.3,0,111,49.7,111,111v592.1
										c0,61.3-49.7,111-111,111H371.1c-61.3,0-111-49.7-111-111V371.1z M371.1,1148.2h740.1c102.1,0,185-83,185-185V371.1
										c0-102.1-83-185-185-185H371.1c-102.1,0-185,83-185,185v592.1C186.1,1065.2,269.1,1148.2,371.1,1148.2z M260.1,1555.3
										c0-61.3,49.7-111,111-111h740.1c61.3,0,111,49.7,111,111v592.1c0,61.3-49.7,111-111,111H371.1c-61.3,0-111-49.7-111-111
										V1555.3z M371.1,2332.3h740.1c102.1,0,185-83,185-185v-592.1c0-102.1-83-185-185-185H371.1c-102.1,0-185,83-185,185v592.1
										C186.1,2249.4,269.1,2332.3,371.1,2332.3z M2406.4,963.2c0,61.3-49.7,111-111,111h-259V997c8.8,1.7,17.8,3.2,26.9,3.2
										c39.6,0,78.5-16,106.7-44.2l51.5-51.5c23.8-23.8,37-55.7,37-89.3c0-33.7-13.2-65.5-37-89.3l-65.2-65.2
										c-19.7-19.7-45.8-30.5-73.6-30.5h-4.9c-39.6,0-75.2,22-92.9,57.4c-5.1,10.3-15.3,16.6-26.7,16.6h-4.9
										c-8.1,0-15.5-3.2-21.2-8.8l-34.7-34.7c-5.6-5.8-8.8-13.2-8.8-21.2v-4.9c0-11.4,6.4-21.7,16.6-26.7
										c35.4-17.8,57.4-53.3,57.4-92.9v-4.9c0-27.8-10.8-53.9-30.5-73.6l-65.2-65.2c-47.7-47.7-131-47.7-178.7,0l-51.5,51.5
										c-28.2,28.2-44.2,67.1-44.2,110.1c0,20.5,4,40.6,12.1,59.4c51.5,119.8,132.4,222.8,235.8,300.7
										c-15.9,19.2-25.9,43.5-25.9,70.4v111h-259c-61.3,0-111-49.7-111-111V371.1c0-61.3,49.7-111,111-111h740.1
										c61.3,0,111,49.7,111,111V963.2z M2073.3,1296.2c20.4,0,37,16.6,37,37v296h74v-222c0-20.4,16.6-37,37-37
										c20.4,0,37,16.6,37,37v222h74v-148c0-20.4,16.6-37,37-37c20.4,0,37,16.6,37,37v446.1c0,17.2-4,34.4-11.7,49.7l-62.3,124.6
										v82.7h-592.1V2098l-94.8-126.5c-11.6-15.5-18.9-33.7-21.4-52.8l-26.2-209.9c-4.6-36.6-17.8-72.1-38.3-102.8l-38-57.1
										c-2.2-3.3-3.3-7.1-3.3-11c0-11,8.8-19.8,19.8-19.8c78.2,0,146,55.7,161.3,132.3l47.6,237.8h90.2l31.7-63.2
										c12.7-25.6,19.5-54.2,19.5-82.8V963.2c0-20.4,16.6-37,37-37c20.4,0,37,16.6,37,37v666.1h74v-296
										C2036.3,1312.8,2052.9,1296.2,2073.3,1296.2z M2406.4,2406.4h-740.1v-148h740.1V2406.4z M1844.8,713l34.7,34.7
										c19.7,19.7,45.8,30.5,73.6,30.5h4.9c39.6,0,75.2-22,92.9-57.4c5.1-10.3,15.3-16.6,26.7-16.6h4.9c8.1,0,15.5,3.2,21.2,8.8
										l65.2,65.2c9.7,9.7,15.3,23.3,15.3,37c0,13.7-5.6,27.3-15.3,37l-51.5,51.5c-22.7,22.7-60,28.8-88.8,14.5l-3.2-1.6
										c-17.6-37.9-55.8-64.3-100.3-64.3c-4.2,0-8.2,0.7-12.3,1.3c-106.5-72-189.8-172-240.5-290.4c-4.2-9.7-6.2-19.8-6.2-33.8
										c0-20.2,8.2-40,22.5-54.3l51.5-51.5c19.5-19.5,54.5-19.5,74,0l65.2,65.2c5.6,5.8,8.8,13.2,8.8,21.2v4.9
										c0,11.4-6.4,21.7-16.6,26.7c-35.4,17.8-57.4,53.3-57.4,92.9v4.9C1814.3,667.1,1825.1,693.3,1844.8,713z M2295.3,186.1
										h-740.1c-102.1,0-185,83-185,185v592.1c0,102.1,83,185,185,185h259v594.1c0,16.9-3.9,33.7-11.3,48.9l-31.1-155.2
										c-22.1-111-120.6-191.7-233.9-191.7c-51.7,0-93.8,42.1-93.8,93.8c0,18.5,5.5,36.6,15.8,52l38.2,57.1
										c14,21.1,23.1,45.7,26.3,70.8l26.2,209.9c4,31.9,16.3,62.3,35.6,88l80.1,106.7v61.7h-74v296h888.1v-296h-74v-65.2l54.5-109
										c12.7-25.6,19.5-54.2,19.5-82.8v-446.1c0-61.3-49.7-111-111-111c-14.6,0-28.5,3-41.3,8.1c-12.7-47.1-55.5-82.1-106.7-82.1
										c-14.6,0-28.5,3-41.3,8.1c-12.7-47.1-55.5-82.1-106.7-82.1c-13,0-25.3,2.7-37,6.8v-80.8h259c102.1,0,185-83,185-185V371.1
										C2480.4,269.1,2397.4,186.1,2295.3,186.1z"/>
								</defs>
								<clipPath id="SVGID_00000169560355462557571000000001104573190181816976_">
									<use xlink:href="#SVGID_00000088829195373970011420000015470928687051720576_"  style="overflow:visible;"/>
								</clipPath>
								<g style="clip-path:url(#SVGID_00000169560355462557571000000001104573190181816976_);">
									
										<linearGradient id="SVGID_00000145744741806703750630000004053730285086461631_" gradientUnits="userSpaceOnUse" x1="793.5884" y1="1873.5884" x2="794.5884" y2="1873.5884" gradientTransform="matrix(0 -2294.2866 -2294.2866 0 4299882 1823199.75)">
										<stop  offset="0" style="stop-color:#9F2FFF"/>
										<stop  offset="7.812500e-03" style="stop-color:#9E2FFF"/>
										<stop  offset="1.171880e-02" style="stop-color:#9D30FF"/>
										<stop  offset="1.562500e-02" style="stop-color:#9D31FE"/>
										<stop  offset="1.953120e-02" style="stop-color:#9C32FE"/>
										<stop  offset="2.343750e-02" style="stop-color:#9C32FE"/>
										<stop  offset="2.734380e-02" style="stop-color:#9B33FE"/>
										<stop  offset="3.125000e-02" style="stop-color:#9A33FE"/>
										<stop  offset="3.906250e-02" style="stop-color:#9934FD"/>
										<stop  offset="4.687500e-02" style="stop-color:#9934FD"/>
										<stop  offset="5.078120e-02" style="stop-color:#9835FD"/>
										<stop  offset="5.468750e-02" style="stop-color:#9736FD"/>
										<stop  offset="5.859380e-02" style="stop-color:#9637FC"/>
										<stop  offset="6.250000e-02" style="stop-color:#9637FC"/>
										<stop  offset="6.640620e-02" style="stop-color:#9538FC"/>
										<stop  offset="7.031250e-02" style="stop-color:#9538FC"/>
										<stop  offset="7.421880e-02" style="stop-color:#9439FC"/>
										<stop  offset="7.812500e-02" style="stop-color:#9339FC"/>
										<stop  offset="8.203121e-02" style="stop-color:#933AFB"/>
										<stop  offset="8.593750e-02" style="stop-color:#923AFB"/>
										<stop  offset="9.375000e-02" style="stop-color:#923BFB"/>
										<stop  offset="0.1016" style="stop-color:#913CFB"/>
										<stop  offset="0.1055" style="stop-color:#903DFA"/>
										<stop  offset="0.1094" style="stop-color:#8F3DFA"/>
										<stop  offset="0.1172" style="stop-color:#8E3EFA"/>
										<stop  offset="0.1211" style="stop-color:#8D3FFA"/>
										<stop  offset="0.125" style="stop-color:#8C3FF9"/>
										<stop  offset="0.1328" style="stop-color:#8C40F9"/>
										<stop  offset="0.1406" style="stop-color:#8B41F9"/>
										<stop  offset="0.1445" style="stop-color:#8942F8"/>
										<stop  offset="0.1484" style="stop-color:#8942F8"/>
										<stop  offset="0.1562" style="stop-color:#8843F8"/>
										<stop  offset="0.1641" style="stop-color:#8744F8"/>
										<stop  offset="0.1719" style="stop-color:#8645F8"/>
										<stop  offset="0.1758" style="stop-color:#8545F7"/>
										<stop  offset="0.1797" style="stop-color:#8446F7"/>
										<stop  offset="0.1875" style="stop-color:#8446F7"/>
										<stop  offset="0.1914" style="stop-color:#8348F6"/>
										<stop  offset="0.1953" style="stop-color:#8248F6"/>
										<stop  offset="0.1992" style="stop-color:#8149F6"/>
										<stop  offset="0.2031" style="stop-color:#8149F6"/>
										<stop  offset="0.2109" style="stop-color:#804AF6"/>
										<stop  offset="0.2148" style="stop-color:#7F4AF6"/>
										<stop  offset="0.2188" style="stop-color:#7F4BF5"/>
										<stop  offset="0.2227" style="stop-color:#7E4BF5"/>
										<stop  offset="0.2266" style="stop-color:#7D4CF5"/>
										<stop  offset="0.2305" style="stop-color:#7D4DF5"/>
										<stop  offset="0.2344" style="stop-color:#7C4DF5"/>
										<stop  offset="0.2422" style="stop-color:#7C4EF5"/>
										<stop  offset="0.2461" style="stop-color:#7B4FF4"/>
										<stop  offset="0.25" style="stop-color:#7A4FF4"/>
										<stop  offset="0.2539" style="stop-color:#7950F4"/>
										<stop  offset="0.2578" style="stop-color:#7951F4"/>
										<stop  offset="0.2617" style="stop-color:#7851F3"/>
										<stop  offset="0.2656" style="stop-color:#7852F3"/>
										<stop  offset="0.2695" style="stop-color:#7752F3"/>
										<stop  offset="0.2734" style="stop-color:#7753F3"/>
										<stop  offset="0.2773" style="stop-color:#7653F3"/>
										<stop  offset="0.2812" style="stop-color:#7554F3"/>
										<stop  offset="0.2891" style="stop-color:#7454F2"/>
										<stop  offset="0.2969" style="stop-color:#7455F2"/>
										<stop  offset="0.3008" style="stop-color:#7356F2"/>
										<stop  offset="0.3047" style="stop-color:#7257F2"/>
										<stop  offset="0.3086" style="stop-color:#7257F1"/>
										<stop  offset="0.3125" style="stop-color:#7158F1"/>
										<stop  offset="0.3164" style="stop-color:#7058F1"/>
										<stop  offset="0.3203" style="stop-color:#7059F1"/>
										<stop  offset="0.3242" style="stop-color:#6F59F1"/>
										<stop  offset="0.3281" style="stop-color:#6E5AF1"/>
										<stop  offset="0.332" style="stop-color:#6E5AF0"/>
										<stop  offset="0.3359" style="stop-color:#6D5BF0"/>
										<stop  offset="0.3438" style="stop-color:#6D5BF0"/>
										<stop  offset="0.3516" style="stop-color:#6C5CF0"/>
										<stop  offset="0.3555" style="stop-color:#6B5DF0"/>
										<stop  offset="0.3594" style="stop-color:#6A5EEF"/>
										<stop  offset="0.3672" style="stop-color:#695EEF"/>
										<stop  offset="0.3711" style="stop-color:#685FEE"/>
										<stop  offset="0.375" style="stop-color:#6760EE"/>
										<stop  offset="0.3828" style="stop-color:#6760EE"/>
										<stop  offset="0.3906" style="stop-color:#6661EE"/>
										<stop  offset="0.3945" style="stop-color:#6462ED"/>
										<stop  offset="0.3984" style="stop-color:#6463ED"/>
										<stop  offset="0.4023" style="stop-color:#6364ED"/>
										<stop  offset="0.4062" style="stop-color:#6364ED"/>
										<stop  offset="0.4141" style="stop-color:#6265ED"/>
										<stop  offset="0.4219" style="stop-color:#6165ED"/>
										<stop  offset="0.4258" style="stop-color:#6066EC"/>
										<stop  offset="0.4297" style="stop-color:#5F67EC"/>
										<stop  offset="0.4375" style="stop-color:#5F67EC"/>
										<stop  offset="0.4414" style="stop-color:#5E68EC"/>
										<stop  offset="0.4453" style="stop-color:#5D69EB"/>
										<stop  offset="0.4492" style="stop-color:#5C6AEB"/>
										<stop  offset="0.4531" style="stop-color:#5C6AEB"/>
										<stop  offset="0.4609" style="stop-color:#5B6AEB"/>
										<stop  offset="0.4648" style="stop-color:#5A6BEB"/>
										<stop  offset="0.4688" style="stop-color:#5A6CEA"/>
										<stop  offset="0.4727" style="stop-color:#596CEA"/>
										<stop  offset="0.4766" style="stop-color:#586DEA"/>
										<stop  offset="0.4805" style="stop-color:#586DEA"/>
										<stop  offset="0.4844" style="stop-color:#576EEA"/>
										<stop  offset="0.4922" style="stop-color:#576FE9"/>
										<stop  offset="0.4961" style="stop-color:#566FE9"/>
										<stop  offset="0.5" style="stop-color:#5570E9"/>
										<stop  offset="0.5078" style="stop-color:#5470E9"/>
										<stop  offset="0.5117" style="stop-color:#5372E8"/>
										<stop  offset="0.5156" style="stop-color:#5372E8"/>
										<stop  offset="0.5195" style="stop-color:#5273E8"/>
										<stop  offset="0.5234" style="stop-color:#5273E8"/>
										<stop  offset="0.5273" style="stop-color:#5174E8"/>
										<stop  offset="0.5312" style="stop-color:#5074E8"/>
										<stop  offset="0.5391" style="stop-color:#4F75E7"/>
										<stop  offset="0.5469" style="stop-color:#4F75E7"/>
										<stop  offset="0.5508" style="stop-color:#4E76E7"/>
										<stop  offset="0.5547" style="stop-color:#4D77E7"/>
										<stop  offset="0.5586" style="stop-color:#4C78E7"/>
										<stop  offset="0.5625" style="stop-color:#4C78E6"/>
										<stop  offset="0.5664" style="stop-color:#4B79E6"/>
										<stop  offset="0.5703" style="stop-color:#4B79E6"/>
										<stop  offset="0.5742" style="stop-color:#4A7AE6"/>
										<stop  offset="0.5781" style="stop-color:#497AE6"/>
										<stop  offset="0.5859" style="stop-color:#497BE5"/>
										<stop  offset="0.5938" style="stop-color:#487CE5"/>
										<stop  offset="0.6016" style="stop-color:#477DE5"/>
										<stop  offset="0.6055" style="stop-color:#467EE4"/>
										<stop  offset="0.6094" style="stop-color:#457EE4"/>
										<stop  offset="0.6172" style="stop-color:#447FE4"/>
										<stop  offset="0.6211" style="stop-color:#4380E3"/>
										<stop  offset="0.625" style="stop-color:#4280E3"/>
										<stop  offset="0.6328" style="stop-color:#4281E3"/>
										<stop  offset="0.6406" style="stop-color:#4181E3"/>
										<stop  offset="0.6445" style="stop-color:#3F83E3"/>
										<stop  offset="0.6484" style="stop-color:#3F83E2"/>
										<stop  offset="0.6562" style="stop-color:#3E84E2"/>
										<stop  offset="0.6641" style="stop-color:#3D85E2"/>
										<stop  offset="0.6719" style="stop-color:#3C86E2"/>
										<stop  offset="0.6758" style="stop-color:#3B86E1"/>
										<stop  offset="0.6797" style="stop-color:#3A87E1"/>
										<stop  offset="0.6875" style="stop-color:#3A87E1"/>
										<stop  offset="0.6914" style="stop-color:#3989E0"/>
										<stop  offset="0.6953" style="stop-color:#3889E0"/>
										<stop  offset="0.6992" style="stop-color:#378AE0"/>
										<stop  offset="0.7031" style="stop-color:#378AE0"/>
										<stop  offset="0.7109" style="stop-color:#368BE0"/>
										<stop  offset="0.7148" style="stop-color:#358BE0"/>
										<stop  offset="0.7188" style="stop-color:#358CDF"/>
										<stop  offset="0.7227" style="stop-color:#348CDF"/>
										<stop  offset="0.7266" style="stop-color:#338DDF"/>
										<stop  offset="0.7305" style="stop-color:#338EDF"/>
										<stop  offset="0.7344" style="stop-color:#328EDF"/>
										<stop  offset="0.7422" style="stop-color:#328FDE"/>
										<stop  offset="0.7461" style="stop-color:#3090DE"/>
										<stop  offset="0.75" style="stop-color:#3090DE"/>
										<stop  offset="0.7539" style="stop-color:#2F91DE"/>
										<stop  offset="0.7578" style="stop-color:#2F92DE"/>
										<stop  offset="0.7656" style="stop-color:#2E92DE"/>
										<stop  offset="0.7695" style="stop-color:#2D93DD"/>
										<stop  offset="0.7734" style="stop-color:#2D94DD"/>
										<stop  offset="0.7773" style="stop-color:#2C94DD"/>
										<stop  offset="0.7812" style="stop-color:#2B95DD"/>
										<stop  offset="0.7891" style="stop-color:#2A95DC"/>
										<stop  offset="0.7969" style="stop-color:#2A96DC"/>
										<stop  offset="0.8008" style="stop-color:#2997DC"/>
										<stop  offset="0.8047" style="stop-color:#2898DC"/>
										<stop  offset="0.8086" style="stop-color:#2798DB"/>
										<stop  offset="0.8125" style="stop-color:#2799DB"/>
										<stop  offset="0.8164" style="stop-color:#2699DB"/>
										<stop  offset="0.8203" style="stop-color:#269ADB"/>
										<stop  offset="0.8242" style="stop-color:#259ADB"/>
										<stop  offset="0.8281" style="stop-color:#249BDB"/>
										<stop  offset="0.832" style="stop-color:#249BDA"/>
										<stop  offset="0.8359" style="stop-color:#239CDA"/>
										<stop  offset="0.8438" style="stop-color:#239CDA"/>
										<stop  offset="0.8516" style="stop-color:#229DDA"/>
										<stop  offset="0.8555" style="stop-color:#219ED9"/>
										<stop  offset="0.8594" style="stop-color:#209FD9"/>
										<stop  offset="0.8633" style="stop-color:#1F9FD9"/>
										<stop  offset="0.8672" style="stop-color:#1FA0D9"/>
										<stop  offset="0.8711" style="stop-color:#1EA1D9"/>
										<stop  offset="0.875" style="stop-color:#1DA1D8"/>
										<stop  offset="0.8828" style="stop-color:#1DA1D8"/>
										<stop  offset="0.8906" style="stop-color:#1CA2D8"/>
										<stop  offset="0.8945" style="stop-color:#1AA3D7"/>
										<stop  offset="0.8984" style="stop-color:#1AA4D7"/>
										<stop  offset="0.9023" style="stop-color:#19A4D7"/>
										<stop  offset="0.9062" style="stop-color:#19A5D7"/>
										<stop  offset="0.9141" style="stop-color:#18A6D7"/>
										<stop  offset="0.9219" style="stop-color:#17A6D7"/>
										<stop  offset="0.9258" style="stop-color:#16A7D6"/>
										<stop  offset="0.9297" style="stop-color:#15A8D6"/>
										<stop  offset="0.9375" style="stop-color:#15A8D6"/>
										<stop  offset="0.9414" style="stop-color:#14A9D5"/>
										<stop  offset="0.9453" style="stop-color:#13AAD5"/>
										<stop  offset="0.9492" style="stop-color:#12ABD5"/>
										<stop  offset="0.9531" style="stop-color:#12ABD5"/>
										<stop  offset="0.9609" style="stop-color:#11ABD5"/>
										<stop  offset="0.9648" style="stop-color:#10ACD5"/>
										<stop  offset="0.9688" style="stop-color:#10ADD4"/>
										<stop  offset="0.9727" style="stop-color:#0FADD4"/>
										<stop  offset="0.9766" style="stop-color:#0EAED4"/>
										<stop  offset="0.9805" style="stop-color:#0EAED4"/>
										<stop  offset="0.9844" style="stop-color:#0DAFD4"/>
										<stop  offset="0.9922" style="stop-color:#0DAFD4"/>
										<stop  offset="0.9961" style="stop-color:#0BB0D3"/>
										<stop  offset="1" style="stop-color:#0BB1D3"/>
									</linearGradient>
									<path style="fill:url(#SVGID_00000145744741806703750630000004053730285086461631_);" d="M186.1,2480.4h2294.3V186.1H186.1
										V2480.4z"/>
								</g>
							</g>
						</g>
					</g>
				</g>
			</g>
		</g>
	</g>
</g>
</svg>
